%
M48
M72
T01C0.02362
T02C0.02400
T03C0.04331
T04C0.04724
T05C0.06299
T06C0.11811
%
T01
X113572Y85186
X169950Y68178
X207076Y48926
X242391Y71800
X255304Y93847
X252233Y112587
X268690Y148769
X222312Y182902
X207351Y209280
X185186Y209202
X162154Y208887
X92351Y218335
X78493Y250068
X39005Y256052
X28139Y249398
X75698Y155658
X272548Y289517
X323729Y210776
X441839Y92666
X402745Y69950
X337194Y52391
X528454Y206839
X528454Y321013
T02
X485068Y311347
X442745Y307607
X425304Y303276
X377233Y315875
X343670Y265678
X346623Y255855
X346515Y247144
X383198Y251308
X412725Y260658
X456032Y264103
X472272Y240481
X427981Y129261
X441761Y125324
X455540Y121387
X499831Y87430
X455048Y39694
X475166Y28690
X435855Y24930
X425186Y28139
X373394Y23188
X344635Y79162
X354320Y83434
X221780Y161741
X212922Y161741
X120501Y117115
X115225Y121170
X110934Y125107
X106524Y129989
X95304Y133690
X82509Y137627
X58887Y111770
X47568Y114457
X36741Y118434
X24930Y120894
X61387Y83946
X47568Y83001
X31554Y82509
X174536Y35934
X189930Y40146
X39015Y236072
X54192Y247863
X82509Y272961
X65776Y281820
X39202Y283788
X104467Y270727
X129064Y258946
X134182Y249339
X127292Y245402
T03
X350107Y286879
X360107Y286879
X370107Y286879
X380107Y286879
X390107Y286879
X400107Y286879
X410107Y286879
X420107Y286879
X430107Y286879
X440107Y286879
X450107Y286879
X460107Y286879
X470107Y286879
X480107Y286879
X490107Y286879
X500107Y286879
X510107Y286879
X520107Y286879
X530107Y286879
X530107Y296879
X520107Y296879
X510107Y296879
X500107Y296879
X490107Y296879
X480107Y296879
X470107Y296879
X460107Y296879
X450107Y296879
X440107Y296879
X430107Y296879
X420107Y296879
X410107Y296879
X400107Y296879
X390107Y296879
X380107Y296879
X370107Y296879
X360107Y296879
X350107Y296879
X350107Y56879
X360107Y56879
X370107Y56879
X380107Y56879
X390107Y56879
X400107Y56879
X410107Y56879
X420107Y56879
X430107Y56879
X440107Y56879
X450107Y56879
X460107Y56879
X470107Y56879
X480107Y56879
X490107Y56879
X500107Y56879
X510107Y56879
X520107Y56879
X530107Y56879
X530107Y46879
X520107Y46879
X510107Y46879
X500107Y46879
X490107Y46879
X480107Y46879
X470107Y46879
X460107Y46879
X450107Y46879
X440107Y46879
X430107Y46879
X420107Y46879
X410107Y46879
X400107Y46879
X390107Y46879
X380107Y46879
X370107Y46879
X360107Y46879
X350107Y46879
T04
X23493Y28611
X37272Y28611
X51052Y28611
X64831Y28611
X78611Y28611
X78729Y58611
X92509Y58611
X106288Y58611
X120068Y58611
X133847Y58611
X147627Y58611
X161406Y58611
X175186Y58611
X188965Y58611
X202745Y58611
X64950Y58611
X51170Y58611
X37391Y58611
X23611Y58611
X23611Y313798
X37391Y313798
X51170Y313798
X64950Y313798
X78729Y313798
X92509Y313798
X106288Y313798
X120068Y313798
X133847Y313798
X147627Y313798
X161406Y313798
X175186Y313798
X188965Y313798
X202745Y313798
T05
X48611Y175619
X24989Y175619
T06
X96288Y202587
X521485Y226209
X521485Y96288
M30
