%
M48
M72
T01C0.01378
T02C0.04724
T03C0.06693
T04C0.12992
T05C0.14961
T06C0.20906
%
T01
X76103Y13611
X143032Y13611
X150906Y92351
X158780Y151406
X182402Y198650
X209961Y206524
X225709Y206524
X237520Y206524
X253269Y206524
X269017Y206524
X284765Y206524
X272954Y186839
X257206Y159280
X237520Y159280
X221772Y186839
X225709Y234083
X237520Y234083
X253269Y234083
X269017Y234083
X284765Y234083
X284765Y257706
X269017Y257706
X253269Y257706
X237520Y257706
X225709Y257706
X209961Y257706
X209961Y234083
X158780Y230146
X111536Y285265
X165613Y328532
X139095Y344320
X174528Y364005
X209961Y364005
X209961Y356131
X217835Y356131
X217835Y364005
X225709Y364005
X225709Y356131
X233583Y356131
X233583Y364005
X241457Y364005
X241457Y356131
X241457Y348257
X241457Y340383
X233583Y340383
X225709Y340383
X225709Y348257
X233583Y348257
X217835Y348257
X209961Y348257
X209961Y340383
X217835Y340383
X217835Y332509
X209961Y332509
X209961Y324635
X217835Y324635
X217835Y316761
X209961Y316761
X209961Y308887
X217835Y308887
X225709Y308887
X225709Y316761
X233583Y316761
X233583Y308887
X241457Y308887
X241457Y316761
X241457Y324635
X241457Y332509
X233583Y332509
X225709Y332509
X225709Y324635
X233583Y324635
X253269Y324635
X253269Y332509
X261143Y332509
X269017Y332509
X269017Y324635
X261143Y324635
X261143Y316761
X269017Y316761
X269017Y308887
X261143Y308887
X253269Y308887
X253269Y316761
X276891Y316761
X284765Y316761
X284765Y308887
X276891Y308887
X276891Y324635
X284765Y324635
X284765Y332509
X276891Y332509
X276891Y340383
X284765Y340383
X284765Y348257
X276891Y348257
X276891Y356131
X284765Y356131
X284765Y364005
X276891Y364005
X269017Y364005
X269017Y356131
X261143Y356131
X261143Y364005
X253269Y364005
X253269Y356131
X253269Y348257
X253269Y340383
X261143Y340383
X269017Y340383
X269017Y348257
X261143Y348257
X315867Y357706
X317835Y338414
X332009Y308887
X351694Y332509
X359568Y371879
X324135Y407312
X304450Y399438
X300513Y450619
X332009Y489989
X438308Y442745
X442245Y391564
X485552Y301013
X485552Y210461
X410749Y190776
X375316Y175028
X355631Y147469
X355631Y92351
X418623Y92351
X442245Y13611
X367442Y13611
X257206Y13611
X237520Y13611
X237520Y72666
X257206Y72666
X257206Y96288
X237520Y96288
X316261Y234083
X323192Y245894
X316261Y261643
X318229Y286446
X331221Y284477
X348544Y249044
X190276Y403375
X170591Y430934
X146969Y450619
X36733Y501800
X36733Y344320
X36733Y289202
X76103Y206524
X76103Y171091
X64292Y84477
X485552Y501800
T02
X452796Y347666
X439017Y347666
X452796Y217745
X328662Y123847
X328662Y41682
X181024Y41682
X181024Y123847
T03
X429371Y233099
X462442Y237824
X462442Y327587
X429371Y332312
T04
X36733Y49044
X170591Y182902
X174528Y304950
X312324Y304950
X316261Y182902
X485552Y49044
X485552Y474241
X36733Y474241
T05
X228465Y462430
X263505Y463217
T06
X184725Y474241
X36733Y434871
X36733Y147469
X36733Y84477
X485552Y84477
X485552Y147469
X485552Y434871
M30
