G75*
%MOIN*%
%OFA0B0*%
%FSLAX25Y25*%
%IPPOS*%
%LPD*%
%AMOC8*
5,1,8,0,0,1.08239X$1,22.5*
%
%ADD10C,0.13792*%
%ADD11C,0.25706*%
%ADD12C,0.19761*%
%ADD13C,0.07887*%
%ADD14C,0.10839*%
%ADD15C,0.03778*%
D10*
X0036733Y0049044D03*
X0170591Y0182902D03*
X0174528Y0304950D03*
X0312324Y0304950D03*
X0316261Y0182902D03*
X0485552Y0049044D03*
X0485552Y0474241D03*
X0036733Y0474241D03*
D11*
X0036733Y0434871D03*
X0184725Y0474241D03*
X0485552Y0434871D03*
X0485552Y0147469D03*
X0485552Y0084477D03*
X0036733Y0084477D03*
X0036733Y0147469D03*
D12*
X0228465Y0462430D02*
X0228465Y0481391D01*
X0263505Y0482178D02*
X0263505Y0463217D01*
D13*
X0439017Y0347666D03*
X0452796Y0347666D03*
X0452796Y0217745D03*
X0328662Y0123847D03*
X0328662Y0041682D03*
X0181024Y0041682D03*
X0181024Y0123847D03*
D14*
X0429371Y0233099D03*
X0462442Y0237824D03*
X0462442Y0327587D03*
X0429371Y0332312D03*
D15*
X0485552Y0301013D03*
X0485552Y0210461D03*
X0410749Y0190776D03*
X0375316Y0175028D03*
X0355631Y0147469D03*
X0355631Y0092351D03*
X0418623Y0092351D03*
X0442245Y0013611D03*
X0367442Y0013611D03*
X0257206Y0013611D03*
X0237520Y0013611D03*
X0237520Y0072666D03*
X0257206Y0072666D03*
X0257206Y0096288D03*
X0237520Y0096288D03*
X0237520Y0159280D03*
X0257206Y0159280D03*
X0272954Y0186839D03*
X0269017Y0206524D03*
X0284765Y0206524D03*
X0284765Y0234083D03*
X0269017Y0234083D03*
X0253269Y0234083D03*
X0237520Y0234083D03*
X0225709Y0234083D03*
X0209961Y0234083D03*
X0209961Y0257706D03*
X0225709Y0257706D03*
X0237520Y0257706D03*
X0253269Y0257706D03*
X0269017Y0257706D03*
X0284765Y0257706D03*
X0316261Y0261643D03*
X0323192Y0245894D03*
X0316261Y0234083D03*
X0348544Y0249044D03*
X0331221Y0284477D03*
X0318229Y0286446D03*
X0332009Y0308887D03*
X0351694Y0332509D03*
X0317835Y0338414D03*
X0315867Y0357706D03*
X0284765Y0356131D03*
X0284765Y0364005D03*
X0276891Y0364005D03*
X0276891Y0356131D03*
X0276891Y0348257D03*
X0284765Y0348257D03*
X0284765Y0340383D03*
X0276891Y0340383D03*
X0276891Y0332509D03*
X0284765Y0332509D03*
X0284765Y0324635D03*
X0276891Y0324635D03*
X0276891Y0316761D03*
X0284765Y0316761D03*
X0284765Y0308887D03*
X0276891Y0308887D03*
X0269017Y0308887D03*
X0269017Y0316761D03*
X0261143Y0316761D03*
X0261143Y0308887D03*
X0253269Y0308887D03*
X0253269Y0316761D03*
X0253269Y0324635D03*
X0253269Y0332509D03*
X0261143Y0332509D03*
X0269017Y0332509D03*
X0269017Y0324635D03*
X0261143Y0324635D03*
X0261143Y0340383D03*
X0269017Y0340383D03*
X0269017Y0348257D03*
X0261143Y0348257D03*
X0261143Y0356131D03*
X0269017Y0356131D03*
X0269017Y0364005D03*
X0261143Y0364005D03*
X0253269Y0364005D03*
X0253269Y0356131D03*
X0253269Y0348257D03*
X0253269Y0340383D03*
X0241457Y0340383D03*
X0241457Y0348257D03*
X0233583Y0348257D03*
X0225709Y0348257D03*
X0225709Y0340383D03*
X0233583Y0340383D03*
X0233583Y0332509D03*
X0225709Y0332509D03*
X0225709Y0324635D03*
X0233583Y0324635D03*
X0233583Y0316761D03*
X0225709Y0316761D03*
X0225709Y0308887D03*
X0233583Y0308887D03*
X0241457Y0308887D03*
X0241457Y0316761D03*
X0241457Y0324635D03*
X0241457Y0332509D03*
X0217835Y0332509D03*
X0209961Y0332509D03*
X0209961Y0324635D03*
X0217835Y0324635D03*
X0217835Y0316761D03*
X0209961Y0316761D03*
X0209961Y0308887D03*
X0217835Y0308887D03*
X0217835Y0340383D03*
X0209961Y0340383D03*
X0209961Y0348257D03*
X0217835Y0348257D03*
X0217835Y0356131D03*
X0209961Y0356131D03*
X0209961Y0364005D03*
X0217835Y0364005D03*
X0225709Y0364005D03*
X0225709Y0356131D03*
X0233583Y0356131D03*
X0233583Y0364005D03*
X0241457Y0364005D03*
X0241457Y0356131D03*
X0190276Y0403375D03*
X0170591Y0430934D03*
X0146969Y0450619D03*
X0174528Y0364005D03*
X0165613Y0328532D03*
X0139095Y0344320D03*
X0111536Y0285265D03*
X0158780Y0230146D03*
X0182402Y0198650D03*
X0209961Y0206524D03*
X0225709Y0206524D03*
X0237520Y0206524D03*
X0253269Y0206524D03*
X0221772Y0186839D03*
X0158780Y0151406D03*
X0150906Y0092351D03*
X0143032Y0013611D03*
X0076103Y0013611D03*
X0064292Y0084477D03*
X0076103Y0171091D03*
X0076103Y0206524D03*
X0036733Y0289202D03*
X0036733Y0344320D03*
X0036733Y0501800D03*
X0300513Y0450619D03*
X0332009Y0489989D03*
X0324135Y0407312D03*
X0304450Y0399438D03*
X0359568Y0371879D03*
X0438308Y0442745D03*
X0442245Y0391564D03*
X0485552Y0501800D03*
M02*
