G75*
%MOIN*%
%OFA0B0*%
%FSLAX25Y25*%
%IPPOS*%
%LPD*%
%AMOC8*
5,1,8,0,0,1.08239X$1,22.5*
%
%ADD10C,0.13792*%
%ADD11R,0.05918X0.06706*%
%ADD12R,0.05918X0.07099*%
%ADD13R,0.09855X0.04737*%
%ADD14R,0.06804X0.07808*%
%ADD15R,0.39186X0.62611*%
%ADD16R,0.14580X0.07099*%
%ADD17C,0.25706*%
%ADD18R,0.06706X0.05918*%
%ADD19R,0.05918X0.04343*%
%ADD20C,0.19761*%
%ADD21C,0.07887*%
%ADD22C,0.10839*%
%ADD23R,0.07099X0.03950*%
%ADD24R,0.07099X0.05918*%
%ADD25R,0.05524X0.05524*%
%ADD26R,0.05918X0.03556*%
%ADD27R,0.03556X0.05918*%
%ADD28R,0.05721X0.05721*%
%ADD29R,0.07887X0.13398*%
%ADD30R,0.15761X0.24422*%
%ADD31C,0.03778*%
D10*
X0036733Y0049044D03*
X0170591Y0182902D03*
X0174528Y0304950D03*
X0312324Y0304950D03*
X0316261Y0182902D03*
X0485552Y0049044D03*
X0485552Y0474241D03*
X0036733Y0474241D03*
D11*
X0154528Y0369005D03*
X0161221Y0369005D03*
X0222245Y0426249D03*
X0228938Y0426249D03*
X0330946Y0299950D03*
X0337639Y0299950D03*
X0329331Y0241052D03*
X0322639Y0241052D03*
X0170434Y0222233D03*
X0163741Y0222233D03*
D12*
X0163190Y0242076D03*
X0170670Y0242076D03*
X0107048Y0338532D03*
X0099568Y0338532D03*
X0091772Y0348217D03*
X0084292Y0348217D03*
X0162954Y0348139D03*
X0170434Y0348139D03*
X0222087Y0417312D03*
X0229568Y0417312D03*
X0322324Y0328454D03*
X0329804Y0328454D03*
X0384765Y0328454D03*
X0392245Y0328454D03*
X0392954Y0309438D03*
X0385473Y0309438D03*
X0424607Y0364438D03*
X0432087Y0364438D03*
X0328780Y0220422D03*
X0321300Y0220422D03*
D13*
X0338898Y0218926D03*
X0338898Y0248926D03*
X0375906Y0248926D03*
X0375906Y0228926D03*
X0375906Y0218926D03*
X0152560Y0207666D03*
X0152560Y0237666D03*
X0115552Y0237666D03*
X0115552Y0227666D03*
X0115552Y0207666D03*
D14*
X0116930Y0328572D03*
X0116930Y0338572D03*
X0116930Y0348572D03*
X0116930Y0358572D03*
X0154430Y0358572D03*
X0154430Y0348572D03*
X0154430Y0338572D03*
X0154430Y0328572D03*
X0338052Y0328414D03*
X0338052Y0318414D03*
X0338052Y0308414D03*
X0338052Y0338414D03*
X0375552Y0338414D03*
X0375552Y0328414D03*
X0375552Y0318414D03*
X0375552Y0308414D03*
D15*
X0269410Y0338217D03*
X0225316Y0338532D03*
X0224450Y0232233D03*
X0269174Y0231997D03*
D16*
X0309627Y0241997D03*
X0309627Y0221997D03*
X0309863Y0328217D03*
X0309863Y0348217D03*
X0184863Y0348532D03*
X0184863Y0328532D03*
X0183997Y0242233D03*
X0183997Y0222233D03*
D17*
X0036733Y0147469D03*
X0036733Y0084477D03*
X0036733Y0434871D03*
X0184725Y0474241D03*
X0485552Y0434871D03*
X0485552Y0147469D03*
X0485552Y0084477D03*
D18*
X0388032Y0223335D03*
X0388032Y0230028D03*
X0276891Y0417745D03*
X0276891Y0424438D03*
X0102245Y0227154D03*
X0102245Y0220461D03*
D19*
X0164135Y0214713D03*
X0164135Y0206446D03*
X0330040Y0248572D03*
X0330040Y0256839D03*
D20*
X0263505Y0463217D02*
X0263505Y0482178D01*
X0228465Y0481391D02*
X0228465Y0462430D01*
D21*
X0439017Y0347666D03*
X0452796Y0347666D03*
X0452796Y0217745D03*
X0328662Y0123847D03*
X0328662Y0041682D03*
X0181024Y0041682D03*
X0181024Y0123847D03*
D22*
X0429371Y0233099D03*
X0462442Y0237824D03*
X0462442Y0327587D03*
X0429371Y0332312D03*
D23*
X0261694Y0410501D03*
X0261694Y0415501D03*
X0261694Y0420501D03*
X0261694Y0425501D03*
X0261694Y0430501D03*
X0261694Y0435501D03*
X0261694Y0440501D03*
X0261694Y0445501D03*
X0240434Y0445501D03*
X0240434Y0440501D03*
X0240434Y0435501D03*
X0240434Y0430501D03*
X0240434Y0425501D03*
X0240434Y0420501D03*
X0240434Y0415501D03*
X0240434Y0410501D03*
D24*
X0273583Y0435186D03*
X0273583Y0442666D03*
D25*
X0384765Y0318729D03*
X0393032Y0318729D03*
X0107993Y0348257D03*
X0099725Y0348257D03*
D26*
X0124922Y0381524D03*
X0124922Y0387627D03*
X0184765Y0367745D03*
X0184765Y0361643D03*
X0162717Y0267745D03*
X0162717Y0261643D03*
X0107599Y0178965D03*
X0107599Y0172863D03*
X0342639Y0353965D03*
X0342639Y0360068D03*
X0347757Y0279556D03*
X0347757Y0273454D03*
X0375316Y0273454D03*
X0375316Y0279556D03*
X0379253Y0171091D03*
X0379253Y0164989D03*
X0206024Y0496682D03*
X0206024Y0502784D03*
D27*
X0160946Y0376997D03*
X0154843Y0376997D03*
X0038898Y0226603D03*
X0032796Y0226603D03*
X0032796Y0201800D03*
X0038898Y0201800D03*
X0143032Y0186839D03*
X0149135Y0186839D03*
X0083977Y0082509D03*
X0077875Y0082509D03*
X0347757Y0198650D03*
X0353859Y0198650D03*
X0442245Y0081328D03*
X0448347Y0081328D03*
X0332009Y0356131D03*
X0325906Y0356131D03*
D28*
X0320198Y0364005D03*
X0332009Y0364005D03*
X0166654Y0384871D03*
X0154843Y0384871D03*
X0343820Y0190776D03*
X0355631Y0190776D03*
X0154843Y0178965D03*
X0143032Y0178965D03*
D29*
X0136930Y0167154D03*
X0154843Y0167154D03*
X0341654Y0178965D03*
X0359568Y0178965D03*
X0334174Y0375816D03*
X0316261Y0375816D03*
X0170591Y0396682D03*
X0152678Y0396682D03*
D30*
X0225709Y0486052D03*
X0270985Y0486052D03*
D31*
X0300513Y0450619D03*
X0332009Y0489989D03*
X0324135Y0407312D03*
X0304450Y0399438D03*
X0284765Y0364005D03*
X0284765Y0356131D03*
X0276891Y0356131D03*
X0276891Y0364005D03*
X0269017Y0364005D03*
X0269017Y0356131D03*
X0261143Y0356131D03*
X0261143Y0364005D03*
X0253269Y0364005D03*
X0253269Y0356131D03*
X0253269Y0348257D03*
X0253269Y0340383D03*
X0261143Y0340383D03*
X0269017Y0340383D03*
X0269017Y0348257D03*
X0261143Y0348257D03*
X0276891Y0348257D03*
X0284765Y0348257D03*
X0284765Y0340383D03*
X0276891Y0340383D03*
X0276891Y0332509D03*
X0284765Y0332509D03*
X0284765Y0324635D03*
X0276891Y0324635D03*
X0276891Y0316761D03*
X0284765Y0316761D03*
X0284765Y0308887D03*
X0276891Y0308887D03*
X0269017Y0308887D03*
X0269017Y0316761D03*
X0261143Y0316761D03*
X0261143Y0308887D03*
X0253269Y0308887D03*
X0253269Y0316761D03*
X0253269Y0324635D03*
X0253269Y0332509D03*
X0261143Y0332509D03*
X0269017Y0332509D03*
X0269017Y0324635D03*
X0261143Y0324635D03*
X0241457Y0324635D03*
X0241457Y0332509D03*
X0233583Y0332509D03*
X0225709Y0332509D03*
X0225709Y0324635D03*
X0233583Y0324635D03*
X0233583Y0316761D03*
X0225709Y0316761D03*
X0225709Y0308887D03*
X0233583Y0308887D03*
X0241457Y0308887D03*
X0241457Y0316761D03*
X0217835Y0316761D03*
X0209961Y0316761D03*
X0209961Y0308887D03*
X0217835Y0308887D03*
X0217835Y0324635D03*
X0209961Y0324635D03*
X0209961Y0332509D03*
X0217835Y0332509D03*
X0217835Y0340383D03*
X0209961Y0340383D03*
X0209961Y0348257D03*
X0217835Y0348257D03*
X0217835Y0356131D03*
X0209961Y0356131D03*
X0209961Y0364005D03*
X0217835Y0364005D03*
X0225709Y0364005D03*
X0225709Y0356131D03*
X0233583Y0356131D03*
X0233583Y0364005D03*
X0241457Y0364005D03*
X0241457Y0356131D03*
X0241457Y0348257D03*
X0241457Y0340383D03*
X0233583Y0340383D03*
X0225709Y0340383D03*
X0225709Y0348257D03*
X0233583Y0348257D03*
X0174528Y0364005D03*
X0165613Y0328532D03*
X0139095Y0344320D03*
X0111536Y0285265D03*
X0158780Y0230146D03*
X0182402Y0198650D03*
X0209961Y0206524D03*
X0225709Y0206524D03*
X0237520Y0206524D03*
X0253269Y0206524D03*
X0269017Y0206524D03*
X0284765Y0206524D03*
X0272954Y0186839D03*
X0257206Y0159280D03*
X0237520Y0159280D03*
X0221772Y0186839D03*
X0225709Y0234083D03*
X0237520Y0234083D03*
X0253269Y0234083D03*
X0269017Y0234083D03*
X0284765Y0234083D03*
X0284765Y0257706D03*
X0269017Y0257706D03*
X0253269Y0257706D03*
X0237520Y0257706D03*
X0225709Y0257706D03*
X0209961Y0257706D03*
X0209961Y0234083D03*
X0158780Y0151406D03*
X0150906Y0092351D03*
X0143032Y0013611D03*
X0076103Y0013611D03*
X0064292Y0084477D03*
X0076103Y0171091D03*
X0076103Y0206524D03*
X0036733Y0289202D03*
X0036733Y0344320D03*
X0146969Y0450619D03*
X0170591Y0430934D03*
X0190276Y0403375D03*
X0315867Y0357706D03*
X0317835Y0338414D03*
X0332009Y0308887D03*
X0351694Y0332509D03*
X0359568Y0371879D03*
X0438308Y0442745D03*
X0442245Y0391564D03*
X0485552Y0301013D03*
X0485552Y0210461D03*
X0410749Y0190776D03*
X0375316Y0175028D03*
X0355631Y0147469D03*
X0355631Y0092351D03*
X0418623Y0092351D03*
X0442245Y0013611D03*
X0367442Y0013611D03*
X0257206Y0013611D03*
X0237520Y0013611D03*
X0237520Y0072666D03*
X0257206Y0072666D03*
X0257206Y0096288D03*
X0237520Y0096288D03*
X0316261Y0234083D03*
X0323192Y0245894D03*
X0316261Y0261643D03*
X0318229Y0286446D03*
X0331221Y0284477D03*
X0348544Y0249044D03*
X0485552Y0501800D03*
X0036733Y0501800D03*
M02*
