G75*
%MOIN*%
%OFA0B0*%
%FSLAX25Y25*%
%IPPOS*%
%LPD*%
%AMOC8*
5,1,8,0,0,1.08239X$1,22.5*
%
%ADD10C,0.00500*%
%ADD11C,0.01200*%
%ADD12C,0.02000*%
D10*
X0134863Y0239202D02*
X0134896Y0241895D01*
X0134995Y0244587D01*
X0135160Y0247275D01*
X0135391Y0249959D01*
X0135688Y0252636D01*
X0136051Y0255305D01*
X0136479Y0257964D01*
X0136972Y0260612D01*
X0137530Y0263247D01*
X0138152Y0265868D01*
X0138838Y0268472D01*
X0139589Y0271059D01*
X0140402Y0273627D01*
X0141278Y0276174D01*
X0142217Y0278698D01*
X0143217Y0281199D01*
X0144278Y0283675D01*
X0145400Y0286124D01*
X0146581Y0288544D01*
X0147821Y0290935D01*
X0149120Y0293295D01*
X0150476Y0295622D01*
X0151889Y0297915D01*
X0153358Y0300172D01*
X0154882Y0302393D01*
X0156460Y0304576D01*
X0158091Y0306720D01*
X0159774Y0308823D01*
X0161508Y0310884D01*
X0163292Y0312902D01*
X0165125Y0314875D01*
X0167006Y0316803D01*
X0168934Y0318684D01*
X0170907Y0320517D01*
X0172925Y0322301D01*
X0174986Y0324035D01*
X0177089Y0325718D01*
X0179233Y0327349D01*
X0181416Y0328927D01*
X0183637Y0330451D01*
X0185894Y0331920D01*
X0188187Y0333333D01*
X0190514Y0334689D01*
X0192874Y0335988D01*
X0195265Y0337228D01*
X0197685Y0338409D01*
X0200134Y0339531D01*
X0202610Y0340592D01*
X0205111Y0341592D01*
X0207635Y0342531D01*
X0210182Y0343407D01*
X0212750Y0344220D01*
X0215337Y0344971D01*
X0217941Y0345657D01*
X0220562Y0346279D01*
X0223197Y0346837D01*
X0225845Y0347330D01*
X0228504Y0347758D01*
X0231173Y0348121D01*
X0233850Y0348418D01*
X0236534Y0348649D01*
X0239222Y0348814D01*
X0241914Y0348913D01*
X0244607Y0348946D01*
X0247300Y0348913D01*
X0249992Y0348814D01*
X0252680Y0348649D01*
X0255364Y0348418D01*
X0258041Y0348121D01*
X0260710Y0347758D01*
X0263369Y0347330D01*
X0266017Y0346837D01*
X0268652Y0346279D01*
X0271273Y0345657D01*
X0273877Y0344971D01*
X0276464Y0344220D01*
X0279032Y0343407D01*
X0281579Y0342531D01*
X0284103Y0341592D01*
X0286604Y0340592D01*
X0289080Y0339531D01*
X0291529Y0338409D01*
X0293949Y0337228D01*
X0296340Y0335988D01*
X0298700Y0334689D01*
X0301027Y0333333D01*
X0303320Y0331920D01*
X0305577Y0330451D01*
X0307798Y0328927D01*
X0309981Y0327349D01*
X0312125Y0325718D01*
X0314228Y0324035D01*
X0316289Y0322301D01*
X0318307Y0320517D01*
X0320280Y0318684D01*
X0322208Y0316803D01*
X0324089Y0314875D01*
X0325922Y0312902D01*
X0327706Y0310884D01*
X0329440Y0308823D01*
X0331123Y0306720D01*
X0332754Y0304576D01*
X0334332Y0302393D01*
X0335856Y0300172D01*
X0337325Y0297915D01*
X0338738Y0295622D01*
X0340094Y0293295D01*
X0341393Y0290935D01*
X0342633Y0288544D01*
X0343814Y0286124D01*
X0344936Y0283675D01*
X0345997Y0281199D01*
X0346997Y0278698D01*
X0347936Y0276174D01*
X0348812Y0273627D01*
X0349625Y0271059D01*
X0350376Y0268472D01*
X0351062Y0265868D01*
X0351684Y0263247D01*
X0352242Y0260612D01*
X0352735Y0257964D01*
X0353163Y0255305D01*
X0353526Y0252636D01*
X0353823Y0249959D01*
X0354054Y0247275D01*
X0354219Y0244587D01*
X0354318Y0241895D01*
X0354351Y0239202D01*
X0354318Y0236509D01*
X0354219Y0233817D01*
X0354054Y0231129D01*
X0353823Y0228445D01*
X0353526Y0225768D01*
X0353163Y0223099D01*
X0352735Y0220440D01*
X0352242Y0217792D01*
X0351684Y0215157D01*
X0351062Y0212536D01*
X0350376Y0209932D01*
X0349625Y0207345D01*
X0348812Y0204777D01*
X0347936Y0202230D01*
X0346997Y0199706D01*
X0345997Y0197205D01*
X0344936Y0194729D01*
X0343814Y0192280D01*
X0342633Y0189860D01*
X0341393Y0187469D01*
X0340094Y0185109D01*
X0338738Y0182782D01*
X0337325Y0180489D01*
X0335856Y0178232D01*
X0334332Y0176011D01*
X0332754Y0173828D01*
X0331123Y0171684D01*
X0329440Y0169581D01*
X0327706Y0167520D01*
X0325922Y0165502D01*
X0324089Y0163529D01*
X0322208Y0161601D01*
X0320280Y0159720D01*
X0318307Y0157887D01*
X0316289Y0156103D01*
X0314228Y0154369D01*
X0312125Y0152686D01*
X0309981Y0151055D01*
X0307798Y0149477D01*
X0305577Y0147953D01*
X0303320Y0146484D01*
X0301027Y0145071D01*
X0298700Y0143715D01*
X0296340Y0142416D01*
X0293949Y0141176D01*
X0291529Y0139995D01*
X0289080Y0138873D01*
X0286604Y0137812D01*
X0284103Y0136812D01*
X0281579Y0135873D01*
X0279032Y0134997D01*
X0276464Y0134184D01*
X0273877Y0133433D01*
X0271273Y0132747D01*
X0268652Y0132125D01*
X0266017Y0131567D01*
X0263369Y0131074D01*
X0260710Y0130646D01*
X0258041Y0130283D01*
X0255364Y0129986D01*
X0252680Y0129755D01*
X0249992Y0129590D01*
X0247300Y0129491D01*
X0244607Y0129458D01*
X0241914Y0129491D01*
X0239222Y0129590D01*
X0236534Y0129755D01*
X0233850Y0129986D01*
X0231173Y0130283D01*
X0228504Y0130646D01*
X0225845Y0131074D01*
X0223197Y0131567D01*
X0220562Y0132125D01*
X0217941Y0132747D01*
X0215337Y0133433D01*
X0212750Y0134184D01*
X0210182Y0134997D01*
X0207635Y0135873D01*
X0205111Y0136812D01*
X0202610Y0137812D01*
X0200134Y0138873D01*
X0197685Y0139995D01*
X0195265Y0141176D01*
X0192874Y0142416D01*
X0190514Y0143715D01*
X0188187Y0145071D01*
X0185894Y0146484D01*
X0183637Y0147953D01*
X0181416Y0149477D01*
X0179233Y0151055D01*
X0177089Y0152686D01*
X0174986Y0154369D01*
X0172925Y0156103D01*
X0170907Y0157887D01*
X0168934Y0159720D01*
X0167006Y0161601D01*
X0165125Y0163529D01*
X0163292Y0165502D01*
X0161508Y0167520D01*
X0159774Y0169581D01*
X0158091Y0171684D01*
X0156460Y0173828D01*
X0154882Y0176011D01*
X0153358Y0178232D01*
X0151889Y0180489D01*
X0150476Y0182782D01*
X0149120Y0185109D01*
X0147821Y0187469D01*
X0146581Y0189860D01*
X0145400Y0192280D01*
X0144278Y0194729D01*
X0143217Y0197205D01*
X0142217Y0199706D01*
X0141278Y0202230D01*
X0140402Y0204777D01*
X0139589Y0207345D01*
X0138838Y0209932D01*
X0138152Y0212536D01*
X0137530Y0215157D01*
X0136972Y0217792D01*
X0136479Y0220440D01*
X0136051Y0223099D01*
X0135688Y0225768D01*
X0135391Y0228445D01*
X0135160Y0231129D01*
X0134995Y0233817D01*
X0134896Y0236509D01*
X0134863Y0239202D01*
D11*
X0221546Y0218380D02*
X0230754Y0227588D01*
X0233055Y0227588D01*
X0235357Y0225286D01*
X0235357Y0220682D01*
X0233055Y0218380D01*
X0221546Y0218380D02*
X0221546Y0227588D01*
X0223848Y0232192D02*
X0233055Y0241400D01*
X0223848Y0241400D01*
X0221546Y0239098D01*
X0221546Y0234494D01*
X0223848Y0232192D01*
X0233055Y0232192D01*
X0235357Y0234494D01*
X0235357Y0239098D01*
X0233055Y0241400D01*
X0233055Y0246004D02*
X0235357Y0248306D01*
X0235357Y0252910D01*
X0233055Y0255212D01*
X0223848Y0246004D01*
X0221546Y0248306D01*
X0221546Y0252910D01*
X0223848Y0255212D01*
X0233055Y0255212D01*
X0230754Y0259816D02*
X0223848Y0259816D01*
X0221546Y0262118D01*
X0221546Y0269024D01*
X0230754Y0269024D01*
X0228452Y0273628D02*
X0228452Y0282835D01*
X0235357Y0282835D02*
X0221546Y0282835D01*
X0221546Y0273628D02*
X0235357Y0273628D01*
X0233055Y0246004D02*
X0223848Y0246004D01*
X0201105Y0253517D02*
X0187294Y0253517D01*
X0187294Y0262724D01*
X0189596Y0267328D02*
X0187294Y0269630D01*
X0187294Y0274234D01*
X0189596Y0276536D01*
X0191898Y0276536D01*
X0194200Y0274234D01*
X0194200Y0271932D01*
X0194200Y0274234D02*
X0196502Y0276536D01*
X0198804Y0276536D01*
X0201105Y0274234D01*
X0201105Y0269630D01*
X0198804Y0267328D01*
D12*
X0198439Y0383115D02*
X0194536Y0383115D01*
X0194536Y0387018D01*
X0198439Y0387018D01*
X0198439Y0383115D01*
X0229617Y0383115D02*
X0233521Y0383115D01*
X0233521Y0387018D01*
X0229617Y0387018D01*
X0229617Y0383115D01*
X0264699Y0383115D02*
X0268603Y0383115D01*
X0268603Y0387018D01*
X0264699Y0387018D01*
X0264699Y0383115D01*
X0276393Y0383115D02*
X0280297Y0383115D01*
X0280297Y0387018D01*
X0276393Y0387018D01*
X0276393Y0383115D01*
X0288087Y0383115D02*
X0291991Y0383115D01*
X0291991Y0387018D01*
X0288087Y0387018D01*
X0288087Y0383115D01*
X0299765Y0394825D02*
X0315379Y0394825D01*
X0163357Y0387018D02*
X0163357Y0383115D01*
X0159454Y0383115D01*
X0159454Y0387018D01*
X0163357Y0387018D01*
X0151663Y0394825D02*
X0136050Y0394825D01*
X0128275Y0394825D02*
X0112662Y0394825D01*
X0104887Y0387018D02*
X0100984Y0387018D01*
X0100984Y0383115D01*
X0104887Y0383115D01*
X0104887Y0387018D01*
M02*
